<svg width="20" height="21" viewBox="0 0 20 21" fill="none" xmlns="http://www.w3.org/2000/svg">
<g clip-path="url(#clip0_998_410)">
<rect x="0.849609" y="0.5" width="19.061" height="20" rx="8" fill="#F1F1F1"/>
<path d="M19.708 10.7249C19.708 10.0666 19.6524 9.44159 19.5571 8.83325H10.5825V12.5916H15.7211C15.4907 13.8249 14.8157 14.8666 13.815 15.5749V18.0749H16.8806C18.6755 16.3333 19.708 13.7666 19.708 10.7249Z" fill="#4285F4"/>
<path d="M10.5826 20.5001C13.1559 20.5001 15.3082 19.6001 16.8807 18.0751L13.8151 15.5751C12.9573 16.1751 11.8693 16.5418 10.5826 16.5418C8.09677 16.5418 5.99212 14.7834 5.23762 12.4084H2.07666V14.9834C3.64125 18.2501 6.8578 20.5001 10.5826 20.5001Z" fill="#34A853"/>
<path d="M5.23773 12.4083C5.03918 11.8083 4.93593 11.1666 4.93593 10.4999C4.93593 9.83327 5.04712 9.1916 5.23773 8.5916V6.0166H2.07678C1.42552 7.3666 1.05225 8.88327 1.05225 10.4999C1.05225 12.1166 1.42552 13.6333 2.07678 14.9833L5.23773 12.4083Z" fill="#FBBC05"/>
<path d="M10.5826 4.45833C11.9884 4.45833 13.2432 4.96667 14.236 5.95834L16.9522 3.10833C15.3082 1.49167 13.1559 0.5 10.5826 0.5C6.8578 0.5 3.64125 2.75 2.07666 6.01667L5.23762 8.59167C5.99212 6.21667 8.09677 4.45833 10.5826 4.45833Z" fill="#EA4335"/>
</g>
<defs>
<clipPath id="clip0_998_410">
<rect x="0.849609" y="0.5" width="19.061" height="20" rx="8" fill="white"/>
</clipPath>
</defs>
</svg>
