<svg width="60" height="60" viewBox="0 0 60 60" fill="none" xmlns="http://www.w3.org/2000/svg">
<path fill-rule="evenodd" clip-rule="evenodd" d="M29.72 54.9498C29.9083 55.0165 30.0958 55.0165 30.2825 54.9498C32.71 54.1248 50 47.5448 50 28.1323V10.7598C50.0005 10.5364 49.9262 10.3193 49.7889 10.143C49.6516 9.96674 49.4593 9.84153 49.2425 9.78735L30.2425 5.02985C30.0833 4.99005 29.9167 4.99005 29.7575 5.02985L10.7575 9.78735C10.5407 9.84153 10.3484 9.96674 10.2111 10.143C10.0738 10.3193 9.99948 10.5364 10 10.7598V28.1298C10 47.3473 27.2975 54.0973 29.72 54.9498ZM42.0325 21.4498C42.2232 21.1826 42.3595 20.8804 42.4334 20.5605C42.5074 20.2406 42.5176 19.9093 42.4635 19.5855C42.4094 19.2616 42.2921 18.9516 42.1182 18.6731C41.9443 18.3946 41.7172 18.1531 41.45 17.9623C41.1828 17.7716 40.8806 17.6354 40.5607 17.5614C40.2408 17.4874 39.9095 17.4772 39.5856 17.5313C39.2618 17.5854 38.9517 17.7028 38.6733 17.8767C38.3948 18.0506 38.1532 18.2776 37.9625 18.5448L27.1775 33.6448L21.765 28.2298C21.2935 27.7745 20.662 27.5225 20.0065 27.5282C19.351 27.5339 18.724 27.7968 18.2605 28.2603C17.7969 28.7238 17.534 29.3509 17.5283 30.0063C17.5226 30.6618 17.7746 31.2933 18.23 31.7648L25.73 39.2648C25.9867 39.5212 26.2962 39.7186 26.6369 39.8433C26.9776 39.9681 27.3414 40.0171 27.7029 39.9872C28.0645 39.9572 28.4152 39.8489 28.7307 39.6698C29.0462 39.4906 29.319 39.245 29.53 38.9498L42.0325 21.4498Z" fill="#FCFCFC"/>
</svg>
