<svg width="59" height="59" viewBox="0 0 59 59" fill="none" xmlns="http://www.w3.org/2000/svg">
<path d="M29.2674 58.5347C21.5052 58.5347 14.0609 55.4512 8.57222 49.9625C3.08352 44.4738 0 37.0296 0 29.2674C0 21.5052 3.08352 14.0609 8.57222 8.57222C14.0609 3.08352 21.5052 0 29.2674 0C37.0296 0 44.4738 3.08352 49.9625 8.57222C55.4512 14.0609 58.5347 21.5052 58.5347 29.2674C58.5347 37.0296 55.4512 44.4738 49.9625 49.9625C44.4738 55.4512 37.0296 58.5347 29.2674 58.5347ZM30.1893 11.224C29.9821 11.0935 29.7497 11.0081 29.5072 10.9735C29.2648 10.9389 29.0178 10.9558 28.7823 11.0231C28.5469 11.0904 28.3283 11.2067 28.1408 11.3642C27.9533 11.5218 27.8011 11.7171 27.6943 11.9374L23.3041 20.8347L13.4849 22.2615C13.1604 22.3061 12.855 22.4412 12.6037 22.6513C12.3523 22.8614 12.1652 23.138 12.0637 23.4494C11.9621 23.7609 11.9503 24.0946 12.0296 24.4125C12.1088 24.7303 12.2759 25.0194 12.5118 25.2468L19.6238 32.1685L17.9409 41.9511C17.8869 42.2726 17.9236 42.6028 18.047 42.9046C18.1704 43.2064 18.3755 43.4678 18.6393 43.6593C18.9031 43.8509 19.2151 43.9651 19.5403 43.9891C19.8654 44.013 20.1908 43.9458 20.4798 43.795L29.2674 39.178L38.0476 43.7913C38.3365 43.9436 38.6623 44.012 38.988 43.9887C39.3138 43.9654 39.6265 43.8513 39.8908 43.6594C40.155 43.4675 40.3603 43.2054 40.4832 42.9028C40.6062 42.6003 40.642 42.2693 40.5865 41.9475L38.911 32.1685L46.0156 25.2431C46.2476 25.0147 46.4113 24.7262 46.4885 24.4099C46.5657 24.0937 46.5532 23.7622 46.4526 23.4526C46.3519 23.143 46.167 22.8676 45.9186 22.6572C45.6702 22.4468 45.3681 22.3098 45.0461 22.2615L35.2233 20.8347L30.8332 11.9374C30.6907 11.6433 30.4674 11.3958 30.1893 11.224Z" fill="#FCFCFC"/>
</svg>
