<svg width="60" height="60" viewBox="0 0 60 60" fill="none" xmlns="http://www.w3.org/2000/svg">
<path d="M30 60C22.0435 60 14.4129 56.8393 8.7868 51.2132C3.16071 45.5871 0 37.9565 0 30C0 22.0435 3.16071 14.4129 8.7868 8.7868C14.4129 3.16071 22.0435 0 30 0C37.9565 0 45.5871 3.16071 51.2132 8.7868C56.8393 14.4129 60 22.0435 60 30C60 37.9565 56.8393 45.5871 51.2132 51.2132C45.5871 56.8393 37.9565 60 30 60ZM30.945 11.505C30.7326 11.3712 30.4944 11.2837 30.2459 11.2482C29.9974 11.2127 29.7442 11.23 29.5028 11.2991C29.2615 11.3681 29.0374 11.4872 28.8452 11.6487C28.653 11.8102 28.4971 12.0104 28.3875 12.2362L23.8875 21.3563L13.8225 22.8188C13.4899 22.8645 13.1768 23.003 12.9192 23.2183C12.6615 23.4337 12.4697 23.7172 12.3656 24.0364C12.2616 24.3557 12.2495 24.6978 12.3307 25.0236C12.4119 25.3494 12.5832 25.6457 12.825 25.8787L20.115 32.9738L18.39 43.0013C18.3346 43.3308 18.3723 43.6693 18.4988 43.9786C18.6253 44.2879 18.8355 44.5559 19.1059 44.7522C19.3763 44.9486 19.6961 45.0657 20.0294 45.0902C20.3627 45.1148 20.6962 45.0459 20.9925 44.8913L30 40.1587L39 44.8875C39.2961 45.0436 39.6301 45.1137 39.964 45.0898C40.2979 45.0659 40.6185 44.949 40.8893 44.7523C41.1602 44.5556 41.3706 44.2869 41.4966 43.9768C41.6227 43.6666 41.6594 43.3274 41.6025 42.9975L39.885 32.9738L47.1675 25.875C47.4053 25.6409 47.5731 25.3451 47.6522 25.021C47.7313 24.6968 47.7186 24.357 47.6154 24.0397C47.5122 23.7223 47.3227 23.44 47.0681 23.2244C46.8134 23.0087 46.5037 22.8683 46.1737 22.8188L36.105 21.3563L31.605 12.2362C31.459 11.9347 31.23 11.6811 30.945 11.505Z" fill="#FCFCFC"/>
</svg>
